# xmcd
#
# Track frame offsets:
#	150
#	28704
#	51986
#	73485
#	93653
#	116274
#	136764
#	156253
#	173144
#	193207
#	213812
#	238061
#	258294
#	275720
#	293365
#	314676
#	333120
#
# Disc length: 4655 seconds
#
# Revision: 0
# Processed by: cddbd v1.5.1PL2 Copyright (c) Steve Scherf et al.
# Submitted via: EasyCDDAExtractor 9.0.0.1
#
DISCID=01122d11
DTITLE=Akhenaton - Double chill burger [CD1)
DYEAR=2005
DGENRE=Rap
TTITLE0=La Cosca
TTITLE1=Un Brin De Haine
TTITLE2=Métèque Et Mat
TTITLE3=La Face B (Chill Remix)
TTITLE4=Au Fin Fond D'une Contrée ...
TTITLE5=L'americano
TTITLE6=Je Ne Suis Pas A Plaindre
TTITLE7=Bad Boys De Marseille (Part 2)
TTITLE8=J'ai Pas De Face
TTITLE9=Rien À Perdre
TTITLE10=Pousse Au Milieu Des Cactus, M
TTITLE11=J'voulais Dire
TTITLE12=Paese
TTITLE13=AKH
TTITLE14=Mon Texte, Le Savon
TTITLE15=Petite Apocalypse
TTITLE16=Sol Invictus
EXTD=
EXTT0=
EXTT1=
EXTT2=
EXTT3=
EXTT4=
EXTT5=
EXTT6=
EXTT7=
EXTT8=
EXTT9=
EXTT10=
EXTT11=
EXTT12=
EXTT13=
EXTT14=
EXTT15=
EXTT16=
PLAYORDER=
